<svg width="479" height="352" viewBox="0 0 479 352" fill="none" xmlns="http://www.w3.org/2000/svg">
<g filter="url(#filter0_f_240_7445)">
<g filter="url(#filter1_d_240_7445)">
<path d="M331.789 260H105.141C83.1549 259.985 62.0271 252.429 46.1812 238.915C30.3353 225.4 20.9997 206.975 20.1289 187.495C19.2581 168.016 26.9195 148.993 41.5093 134.409C56.0991 119.825 76.4861 110.81 98.4024 109.252C101.528 89.6845 111.493 71.4779 126.897 57.194C142.301 42.91 162.368 33.2676 184.275 29.6232C206.182 25.9788 228.827 28.5158 249.022 36.8775C269.218 45.2391 285.949 59.0044 296.862 76.2369C316.876 70.0938 338.501 69.3759 358.978 74.1748C379.454 78.9737 397.855 89.0719 411.832 103.181C425.809 117.291 434.729 134.772 437.455 153.395C440.181 172.018 436.589 190.94 427.137 207.745C421.591 222.93 410.761 236.166 396.203 245.554C381.645 254.942 364.106 259.999 346.105 260H331.789Z" fill="url(#paint0_linear_240_7445)"/>
<path d="M346.105 258.95C355.245 258.95 364.232 257.656 372.816 255.104C381.116 252.636 388.909 249.034 395.977 244.399C402.964 239.818 409.088 234.33 414.181 228.087C419.336 221.767 423.316 214.814 426.011 207.422L426.038 207.346L426.078 207.275C429.661 200.927 432.42 194.211 434.279 187.314C436.191 180.217 437.161 172.885 437.161 165.52C437.161 159.18 436.441 152.845 435.02 146.689C433.636 140.691 431.57 134.791 428.881 129.153C426.24 123.617 422.972 118.278 419.166 113.283C415.396 108.336 411.067 103.683 406.298 99.4551C401.53 95.2269 396.283 91.3883 390.703 88.0458C385.07 84.6715 379.048 81.7733 372.804 79.4318C366.446 77.0471 359.791 75.2156 353.026 73.9882C346.084 72.7286 338.939 72.09 331.789 72.09C319.95 72.09 308.329 73.8176 297.249 77.2247L296.314 77.5122L295.829 76.7475C286.813 62.5316 273.697 50.5929 257.9 42.2222C249.911 37.9889 241.328 34.7175 232.39 32.499C223.169 30.2103 213.591 29.0498 203.922 29.0498C190.916 29.0498 178.221 31.1252 166.188 35.2183C154.564 39.1724 143.901 44.8843 134.494 52.1952C125.142 59.4641 117.381 68.0407 111.426 77.6866C105.325 87.5695 101.338 98.2375 99.5747 109.394L99.4427 110.229L98.4946 110.295C87.8885 111.031 77.6841 113.507 68.1649 117.654C58.9154 121.684 50.6559 127.134 43.6159 133.853C29.1501 147.66 21.1835 165.65 21.1835 184.507C21.1835 194.557 23.4031 204.306 27.7808 213.483C29.8849 217.894 32.4892 222.148 35.5214 226.128C38.5251 230.07 41.9746 233.777 45.7741 237.146C49.5737 240.515 53.7545 243.574 58.2004 246.237C62.6888 248.925 67.4868 251.234 72.4614 253.1C82.8113 256.982 93.8063 258.95 105.141 258.95H331.789H346.105ZM346.105 260H331.789H105.141C58.1189 260 19.9995 226.2 19.9995 184.507C19.9995 144.825 54.5292 112.293 98.4022 109.248C105.659 63.3326 150.136 28 203.922 28C243.823 28 278.602 47.4452 296.861 76.2329C307.804 72.868 319.555 71.0402 331.789 71.0402C390.639 71.0402 438.345 113.341 438.345 165.52C438.345 180.696 434.308 195.038 427.137 207.745C416.085 238.068 383.984 260 346.105 260Z" fill="white" fill-opacity="0.5"/>
</g>
</g>
<g filter="url(#filter2_f_240_7445)">
<g filter="url(#filter3_d_240_7445)">
<path d="M283.345 260H91.9126C73.3421 259.986 55.4971 252.789 42.1132 239.915C28.7293 227.041 20.8442 209.489 20.1087 190.933C19.3732 172.377 25.8443 154.256 38.1672 140.364C50.4901 126.471 67.7095 117.884 86.2206 116.4C88.8603 97.7599 97.2776 80.4166 110.288 66.8099C123.299 53.2032 140.248 44.0179 158.751 40.5463C177.254 37.0747 196.38 39.4915 213.438 47.4567C230.496 55.4218 244.628 68.5345 253.845 84.9499C270.749 79.0981 289.014 78.4142 306.309 82.9856C323.604 87.557 339.146 97.1764 350.951 110.617C362.757 124.057 370.291 140.71 372.594 158.45C374.896 176.19 371.862 194.214 363.879 210.223C359.194 224.688 350.047 237.296 337.751 246.239C325.454 255.182 310.641 260 295.437 260H283.345Z" fill="url(#paint1_linear_240_7445)"/>
<path d="M295.436 259C303.157 259 310.747 257.767 317.997 255.336C325.008 252.985 331.59 249.554 337.56 245.139C343.461 240.775 348.634 235.547 352.935 229.6C357.29 223.58 360.651 216.957 362.927 209.915L362.95 209.843L362.984 209.775C366.01 203.728 368.341 197.33 369.91 190.761C371.526 184 372.345 177.015 372.345 169.999C372.345 163.96 371.737 157.925 370.537 152.062C369.368 146.348 367.623 140.728 365.351 135.357C363.121 130.084 360.36 124.997 357.146 120.24C353.962 115.527 350.305 111.095 346.278 107.067C342.25 103.039 337.818 99.3828 333.105 96.1988C328.347 92.9845 323.261 90.2237 317.988 87.9932C312.617 85.7216 306.997 83.9769 301.283 82.8077C295.419 81.6079 289.384 80.9995 283.345 80.9995C273.345 80.9995 263.53 82.6452 254.172 85.8908L253.382 86.1646L252.972 85.4362C245.357 71.8943 234.279 60.5217 220.936 52.5479C214.189 48.5153 206.94 45.399 199.39 43.2857C191.602 41.1055 183.512 40 175.345 40C164.36 40 153.637 41.977 143.474 45.876C133.656 49.6427 124.65 55.0837 116.705 62.048C108.806 68.9722 102.25 77.1422 97.2208 86.3308C92.068 95.7451 88.7001 105.907 87.2108 116.535L87.0993 117.33L86.2985 117.393C77.3403 118.094 68.7214 120.453 60.6813 124.403C52.8689 128.242 45.8927 133.434 39.9465 139.834C27.7284 152.987 20.9995 170.123 20.9995 188.087C20.9995 197.66 22.8743 206.947 26.5718 215.689C28.349 219.891 30.5486 223.943 33.1097 227.734C35.6467 231.489 38.5602 235.02 41.7694 238.23C44.9786 241.439 48.5099 244.352 52.265 246.889C56.056 249.45 60.1085 251.65 64.3102 253.427C73.052 257.125 82.3386 259 91.9122 259H283.345H295.436ZM295.436 260H283.345H91.9122C52.1961 260 19.9995 227.803 19.9995 188.087C19.9995 150.286 49.1642 119.297 86.2205 116.396C92.3499 72.6574 129.916 39 175.345 39C209.047 39 238.422 57.5232 253.844 84.946C263.086 81.7407 273.012 79.9995 283.345 79.9995C333.051 79.9995 373.345 120.294 373.345 169.999C373.345 184.456 369.935 198.118 363.879 210.223C354.543 239.108 327.43 260 295.436 260Z" fill="white" fill-opacity="0.5"/>
</g>
</g>
<path d="M86.2505 240.444L123.266 332.061" stroke="#42A0F0" stroke-width="10" stroke-linecap="round"/>
<path d="M95.4819 262.765L73.1224 252.852" stroke="#42A0F0" stroke-width="10" stroke-linecap="round"/>
<path d="M95.4817 262.765L105.189 239.897" stroke="#42A0F0" stroke-width="10" stroke-linecap="round"/>
<path d="M115.223 311.627L106.025 334.29" stroke="#42A0F0" stroke-width="10" stroke-linecap="round"/>
<path d="M115.223 311.627L138.091 321.334" stroke="#42A0F0" stroke-width="10" stroke-linecap="round"/>
<path d="M56.2051 279.667L154.055 293.419" stroke="#42A0F0" stroke-width="10" stroke-linecap="round"/>
<path d="M80.1514 282.833L60.3869 297.241" stroke="#42A0F0" stroke-width="10" stroke-linecap="round"/>
<path d="M80.1513 282.834L65.2002 262.993" stroke="#42A0F0" stroke-width="10" stroke-linecap="round"/>
<path d="M132.338 290.168L147.365 309.465" stroke="#42A0F0" stroke-width="10" stroke-linecap="round"/>
<path d="M132.338 290.168L152.179 275.217" stroke="#42A0F0" stroke-width="10" stroke-linecap="round"/>
<path d="M75.1509 325.299L135.986 247.434" stroke="#42A0F0" stroke-width="10" stroke-linecap="round"/>
<path d="M89.8662 306.145L92.4613 330.465" stroke="#42A0F0" stroke-width="10" stroke-linecap="round"/>
<path d="M89.8664 306.144L65.2081 309.172" stroke="#42A0F0" stroke-width="10" stroke-linecap="round"/>
<path d="M122.311 264.617L146.536 261.251" stroke="#42A0F0" stroke-width="10" stroke-linecap="round"/>
<path d="M122.311 264.617L119.283 239.958" stroke="#42A0F0" stroke-width="10" stroke-linecap="round"/>
<path d="M214.035 211C214.666 211.018 221.07 236.248 221.07 246.052C221.07 255.856 217.92 263.805 214.035 263.805C210.15 263.805 207 255.857 207 246.053C207 236.249 213.4 210.983 214.035 211Z" fill="#42A0F0"/>
<path d="M212.962 240.422C213.99 240.779 214.302 242.999 213.66 245.383C213.018 247.766 211.664 249.408 210.636 249.052C209.608 248.696 209.295 246.474 209.938 244.091C210.581 241.708 211.933 240.065 212.962 240.422Z" fill="white"/>
<path d="M273.966 211C274.597 211.018 281.001 236.248 281.001 246.052C281.001 255.856 277.851 263.805 273.966 263.805C270.081 263.805 266.931 255.857 266.931 246.053C266.931 236.249 273.331 210.983 273.966 211Z" fill="#42A0F0"/>
<path d="M272.893 240.422C273.921 240.779 274.233 242.999 273.591 245.383C272.949 247.766 271.595 249.408 270.567 249.052C269.54 248.696 269.226 246.474 269.869 244.091C270.512 241.708 271.864 240.065 272.893 240.422Z" fill="white"/>
<path d="M333.897 208C334.528 208.018 340.932 233.248 340.932 243.052C340.932 252.856 337.782 260.805 333.897 260.805C330.012 260.805 326.862 252.857 326.862 243.053C326.862 233.249 333.262 207.983 333.897 208Z" fill="#42A0F0"/>
<path d="M332.824 237.422C333.851 237.779 334.164 239.999 333.522 242.383C332.88 244.766 331.526 246.408 330.498 246.052C329.47 245.696 329.157 243.474 329.8 241.091C330.443 238.708 331.795 237.065 332.824 237.422Z" fill="white"/>
<path d="M242.238 278C242.869 278.018 249.273 303.248 249.273 313.052C249.273 322.856 246.123 330.805 242.238 330.805C238.353 330.805 235.203 322.857 235.203 313.053C235.203 303.249 241.603 277.983 242.238 278Z" fill="#42A0F0"/>
<path d="M241.165 307.422C242.193 307.779 242.505 309.999 241.863 312.383C241.221 314.766 239.867 316.408 238.839 316.052C237.812 315.696 237.498 313.474 238.141 311.091C238.784 308.708 240.136 307.065 241.165 307.422Z" fill="white"/>
<path d="M302.169 278C302.8 278.018 309.204 303.248 309.204 313.052C309.204 322.856 306.054 330.805 302.169 330.805C298.284 330.805 295.134 322.857 295.134 313.053C295.134 303.249 301.534 277.983 302.169 278Z" fill="#42A0F0"/>
<path d="M301.096 307.422C302.123 307.779 302.436 309.999 301.794 312.383C301.152 314.766 299.798 316.408 298.77 316.052C297.742 315.696 297.429 313.474 298.072 311.091C298.715 308.708 300.067 307.065 301.096 307.422Z" fill="white"/>
<path d="M365.625 278C366.256 278.018 372.66 303.248 372.66 313.052C372.66 322.856 369.51 330.805 365.625 330.805C361.74 330.805 358.59 322.857 358.59 313.053C358.59 303.249 364.99 277.983 365.625 278Z" fill="#42A0F0"/>
<path d="M364.552 307.422C365.579 307.779 365.892 309.999 365.25 312.383C364.608 314.766 363.254 316.408 362.226 316.052C361.198 315.696 360.885 313.474 361.528 311.091C362.171 308.708 363.523 307.065 364.552 307.422Z" fill="white"/>
<defs>
<filter id="filter0_f_240_7445" x="15.9995" y="24" width="426.345" height="240" filterUnits="userSpaceOnUse" color-interpolation-filters="sRGB">
<feFlood flood-opacity="0" result="BackgroundImageFix"/>
<feBlend mode="normal" in="SourceGraphic" in2="BackgroundImageFix" result="shape"/>
<feGaussianBlur stdDeviation="2" result="effect1_foregroundBlur_240_7445"/>
</filter>
<filter id="filter1_d_240_7445" x="-0.000488281" y="0" width="478.345" height="292" filterUnits="userSpaceOnUse" color-interpolation-filters="sRGB">
<feFlood flood-opacity="0" result="BackgroundImageFix"/>
<feColorMatrix in="SourceAlpha" type="matrix" values="0 0 0 0 0 0 0 0 0 0 0 0 0 0 0 0 0 0 127 0" result="hardAlpha"/>
<feOffset dx="10" dy="2"/>
<feGaussianBlur stdDeviation="15"/>
<feColorMatrix type="matrix" values="0 0 0 0 0.517708 0 0 0 0 0.553161 0 0 0 0 0.583333 0 0 0 0.596 0"/>
<feBlend mode="normal" in2="BackgroundImageFix" result="effect1_dropShadow_240_7445"/>
<feBlend mode="normal" in="SourceGraphic" in2="effect1_dropShadow_240_7445" result="shape"/>
</filter>
<filter id="filter2_f_240_7445" x="15.9995" y="35" width="361.345" height="229" filterUnits="userSpaceOnUse" color-interpolation-filters="sRGB">
<feFlood flood-opacity="0" result="BackgroundImageFix"/>
<feBlend mode="normal" in="SourceGraphic" in2="BackgroundImageFix" result="shape"/>
<feGaussianBlur stdDeviation="2" result="effect1_foregroundBlur_240_7445"/>
</filter>
<filter id="filter3_d_240_7445" x="-0.000488281" y="11" width="413.345" height="281" filterUnits="userSpaceOnUse" color-interpolation-filters="sRGB">
<feFlood flood-opacity="0" result="BackgroundImageFix"/>
<feColorMatrix in="SourceAlpha" type="matrix" values="0 0 0 0 0 0 0 0 0 0 0 0 0 0 0 0 0 0 127 0" result="hardAlpha"/>
<feOffset dx="10" dy="2"/>
<feGaussianBlur stdDeviation="15"/>
<feColorMatrix type="matrix" values="0 0 0 0 0.501961 0 0 0 0 0.501961 0 0 0 0 0.501961 0 0 0 0.302 0"/>
<feBlend mode="normal" in2="BackgroundImageFix" result="effect1_dropShadow_240_7445"/>
<feBlend mode="normal" in="SourceGraphic" in2="effect1_dropShadow_240_7445" result="shape"/>
</filter>
<linearGradient id="paint0_linear_240_7445" x1="229.202" y1="28.0024" x2="327.822" y2="296.918" gradientUnits="userSpaceOnUse">
<stop stop-color="white" stop-opacity="0.604"/>
<stop offset="1" stop-color="white" stop-opacity="0.2"/>
</linearGradient>
<linearGradient id="paint1_linear_240_7445" x1="196.697" y1="39.0024" x2="299.34" y2="287.166" gradientUnits="userSpaceOnUse">
<stop stop-color="white" stop-opacity="0.604"/>
<stop offset="1" stop-color="white" stop-opacity="0.2"/>
</linearGradient>
</defs>
</svg>
